<?xml version="1.0" encoding="UTF-8" standalone="no"?>
<!DOCTYPE svg PUBLIC "-//W3C//DTD SVG 1.1//EN"
 "http://www.w3.org/Graphics/SVG/1.1/DTD/svg11.dtd">
<!-- Generated by graphviz version 9.0.0 (20230911.1827)
 -->
<!-- Title: G Pages: 1 -->
<svg width="1826pt" height="1056pt"
 viewBox="0.00 0.00 1826.20 1055.70" xmlns="http://www.w3.org/2000/svg" xmlns:xlink="http://www.w3.org/1999/xlink">
<g id="graph0" class="graph" transform="scale(1 1) rotate(0) translate(21.6 1034.1)">
<title>G</title>
<polygon fill="#111111" stroke="none" points="-21.6,21.6 -21.6,-1034.1 1804.6,-1034.1 1804.6,21.6 -21.6,21.6"/>
<!-- App.js -->
<g id="node1" class="node">
<title>App.js</title>
<path fill="none" stroke="#c6c5fe" d="M294.58,-582.5C294.58,-582.5 254.42,-582.5 254.42,-582.5 250.33,-582.5 246.25,-578.42 246.25,-574.33 246.25,-574.33 246.25,-566.17 246.25,-566.17 246.25,-562.08 250.33,-558 254.42,-558 254.42,-558 294.58,-558 294.58,-558 298.67,-558 302.75,-562.08 302.75,-566.17 302.75,-566.17 302.75,-574.33 302.75,-574.33 302.75,-578.42 298.67,-582.5 294.58,-582.5"/>
<text text-anchor="middle" x="274.5" y="-565.2" font-family="Arial" font-size="14.00" fill="#c6c5fe">App.js</text>
</g>
<!-- components/journalSource.js -->
<g id="node2" class="node">
<title>components/journalSource.js</title>
<path fill="none" stroke="#cfffac" d="M858.71,-24.5C858.71,-24.5 675.29,-24.5 675.29,-24.5 671.21,-24.5 667.12,-20.42 667.12,-16.33 667.12,-16.33 667.12,-8.17 667.12,-8.17 667.12,-4.08 671.21,0 675.29,0 675.29,0 858.71,0 858.71,0 862.79,0 866.88,-4.08 866.88,-8.17 866.88,-8.17 866.88,-16.33 866.88,-16.33 866.88,-20.42 862.79,-24.5 858.71,-24.5"/>
<text text-anchor="middle" x="767" y="-7.2" font-family="Arial" font-size="14.00" fill="#cfffac">components/journalSource.js</text>
</g>
<!-- App.js&#45;&gt;components/journalSource.js -->
<g id="edge1" class="edge">
<title>App.js&#45;&gt;components/journalSource.js</title>
<path fill="none" stroke="#757575" d="M277.24,-557.6C283.76,-513.82 309.85,-365.93 377,-266.25 462.6,-139.19 502.39,-111.59 639,-42.25 650.33,-36.5 662.79,-31.83 675.34,-28.04"/>
<polygon fill="#757575" stroke="#757575" points="676.23,-31.43 684.91,-25.35 674.33,-24.69 676.23,-31.43"/>
</g>
<!-- context/AuthContext.js -->
<g id="node3" class="node">
<title>context/AuthContext.js</title>
<path fill="none" stroke="#c6c5fe" d="M1136.46,-851.5C1136.46,-851.5 995.79,-851.5 995.79,-851.5 991.71,-851.5 987.62,-847.42 987.62,-843.33 987.62,-843.33 987.62,-835.17 987.62,-835.17 987.62,-831.08 991.71,-827 995.79,-827 995.79,-827 1136.46,-827 1136.46,-827 1140.54,-827 1144.62,-831.08 1144.62,-835.17 1144.62,-835.17 1144.62,-843.33 1144.62,-843.33 1144.62,-847.42 1140.54,-851.5 1136.46,-851.5"/>
<text text-anchor="middle" x="1066.12" y="-834.2" font-family="Arial" font-size="14.00" fill="#c6c5fe">context/AuthContext.js</text>
</g>
<!-- App.js&#45;&gt;context/AuthContext.js -->
<g id="edge2" class="edge">
<title>App.js&#45;&gt;context/AuthContext.js</title>
<path fill="none" stroke="#757575" d="M278.79,-582.97C288.48,-618.39 319.9,-719.73 377,-783.25 468.37,-884.89 507.48,-907.07 639,-944.25 748.49,-975.2 799.88,-1006.68 895,-944.25 928.62,-922.19 899.29,-885.97 931,-861.25 944,-851.11 959.9,-844.87 976.15,-841.15"/>
<polygon fill="#757575" stroke="#757575" points="976.78,-844.6 985.93,-839.25 975.44,-837.72 976.78,-844.6"/>
</g>
<!-- pages/AboutUsPage.jsx -->
<g id="node4" class="node">
<title>pages/AboutUsPage.jsx</title>
<path fill="none" stroke="#c6c5fe" d="M566.33,-582.5C566.33,-582.5 413.67,-582.5 413.67,-582.5 409.58,-582.5 405.5,-578.42 405.5,-574.33 405.5,-574.33 405.5,-566.17 405.5,-566.17 405.5,-562.08 409.58,-558 413.67,-558 413.67,-558 566.33,-558 566.33,-558 570.42,-558 574.5,-562.08 574.5,-566.17 574.5,-566.17 574.5,-574.33 574.5,-574.33 574.5,-578.42 570.42,-582.5 566.33,-582.5"/>
<text text-anchor="middle" x="490" y="-565.2" font-family="Arial" font-size="14.00" fill="#c6c5fe">pages/AboutUsPage.jsx</text>
</g>
<!-- App.js&#45;&gt;pages/AboutUsPage.jsx -->
<g id="edge3" class="edge">
<title>App.js&#45;&gt;pages/AboutUsPage.jsx</title>
<path fill="none" stroke="#757575" d="M302.97,-570.25C326.25,-570.25 361.04,-570.25 394.25,-570.25"/>
<polygon fill="#757575" stroke="#757575" points="393.93,-573.75 403.93,-570.25 393.93,-566.75 393.93,-573.75"/>
</g>
<!-- pages/AllTravelsPage.jsx -->
<g id="node5" class="node">
<title>pages/AllTravelsPage.jsx</title>
<path fill="none" stroke="#c6c5fe" d="M847.08,-504.5C847.08,-504.5 686.92,-504.5 686.92,-504.5 682.83,-504.5 678.75,-500.42 678.75,-496.33 678.75,-496.33 678.75,-488.17 678.75,-488.17 678.75,-484.08 682.83,-480 686.92,-480 686.92,-480 847.08,-480 847.08,-480 851.17,-480 855.25,-484.08 855.25,-488.17 855.25,-488.17 855.25,-496.33 855.25,-496.33 855.25,-500.42 851.17,-504.5 847.08,-504.5"/>
<text text-anchor="middle" x="767" y="-487.2" font-family="Arial" font-size="14.00" fill="#c6c5fe">pages/AllTravelsPage.jsx</text>
</g>
<!-- App.js&#45;&gt;pages/AllTravelsPage.jsx -->
<g id="edge4" class="edge">
<title>App.js&#45;&gt;pages/AllTravelsPage.jsx</title>
<path fill="none" stroke="#757575" d="M302.99,-564.11C323.36,-559.67 351.84,-553.69 377,-549.25 475.34,-531.89 588.33,-515.75 667.11,-505.11"/>
<polygon fill="#757575" stroke="#757575" points="667.53,-508.59 676.97,-503.79 666.6,-501.65 667.53,-508.59"/>
</g>
<!-- pages/LoginPage.jsx -->
<g id="node6" class="node">
<title>pages/LoginPage.jsx</title>
<path fill="none" stroke="#c6c5fe" d="M556.58,-731.5C556.58,-731.5 423.42,-731.5 423.42,-731.5 419.33,-731.5 415.25,-727.42 415.25,-723.33 415.25,-723.33 415.25,-715.17 415.25,-715.17 415.25,-711.08 419.33,-707 423.42,-707 423.42,-707 556.58,-707 556.58,-707 560.67,-707 564.75,-711.08 564.75,-715.17 564.75,-715.17 564.75,-723.33 564.75,-723.33 564.75,-727.42 560.67,-731.5 556.58,-731.5"/>
<text text-anchor="middle" x="490" y="-714.2" font-family="Arial" font-size="14.00" fill="#c6c5fe">pages/LoginPage.jsx</text>
</g>
<!-- App.js&#45;&gt;pages/LoginPage.jsx -->
<g id="edge5" class="edge">
<title>App.js&#45;&gt;pages/LoginPage.jsx</title>
<path fill="none" stroke="#757575" d="M293.7,-582.95C331.2,-609.12 417.26,-669.18 461.55,-700.09"/>
<polygon fill="#757575" stroke="#757575" points="459.4,-702.86 469.6,-705.71 463.4,-697.12 459.4,-702.86"/>
</g>
<!-- pages/TravelPage.jsx -->
<g id="node7" class="node">
<title>pages/TravelPage.jsx</title>
<path fill="none" stroke="#c6c5fe" d="M558.46,-299.5C558.46,-299.5 421.54,-299.5 421.54,-299.5 417.46,-299.5 413.38,-295.42 413.38,-291.33 413.38,-291.33 413.38,-283.17 413.38,-283.17 413.38,-279.08 417.46,-275 421.54,-275 421.54,-275 558.46,-275 558.46,-275 562.54,-275 566.62,-279.08 566.62,-283.17 566.62,-283.17 566.62,-291.33 566.62,-291.33 566.62,-295.42 562.54,-299.5 558.46,-299.5"/>
<text text-anchor="middle" x="490" y="-282.2" font-family="Arial" font-size="14.00" fill="#c6c5fe">pages/TravelPage.jsx</text>
</g>
<!-- App.js&#45;&gt;pages/TravelPage.jsx -->
<g id="edge6" class="edge">
<title>App.js&#45;&gt;pages/TravelPage.jsx</title>
<path fill="none" stroke="#757575" d="M283.21,-557.79C299.59,-531.54 339.45,-468.87 377,-419.25 407.69,-378.69 446.74,-334.08 469.69,-308.49"/>
<polygon fill="#757575" stroke="#757575" points="472.27,-310.86 476.36,-301.09 467.07,-306.18 472.27,-310.86"/>
</g>
<!-- pages/TravelersJournal.jsx -->
<g id="node8" class="node">
<title>pages/TravelersJournal.jsx</title>
<path fill="none" stroke="#c6c5fe" d="M851.58,-424.5C851.58,-424.5 682.42,-424.5 682.42,-424.5 678.33,-424.5 674.25,-420.42 674.25,-416.33 674.25,-416.33 674.25,-408.17 674.25,-408.17 674.25,-404.08 678.33,-400 682.42,-400 682.42,-400 851.58,-400 851.58,-400 855.67,-400 859.75,-404.08 859.75,-408.17 859.75,-408.17 859.75,-416.33 859.75,-416.33 859.75,-420.42 855.67,-424.5 851.58,-424.5"/>
<text text-anchor="middle" x="767" y="-407.2" font-family="Arial" font-size="14.00" fill="#c6c5fe">pages/TravelersJournal.jsx</text>
</g>
<!-- App.js&#45;&gt;pages/TravelersJournal.jsx -->
<g id="edge7" class="edge">
<title>App.js&#45;&gt;pages/TravelersJournal.jsx</title>
<path fill="none" stroke="#757575" d="M293.78,-557.52C313.51,-544.3 346.24,-523.82 377,-511.25 477.43,-470.22 599.57,-442.48 679.87,-427.04"/>
<polygon fill="#757575" stroke="#757575" points="680.26,-430.53 689.43,-425.23 678.95,-423.65 680.26,-430.53"/>
</g>
<!-- pages/homePage/HomePage.jsx -->
<g id="node9" class="node">
<title>pages/homePage/HomePage.jsx</title>
<path fill="none" stroke="#c6c5fe" d="M594.83,-774.5C594.83,-774.5 385.17,-774.5 385.17,-774.5 381.08,-774.5 377,-770.42 377,-766.33 377,-766.33 377,-758.17 377,-758.17 377,-754.08 381.08,-750 385.17,-750 385.17,-750 594.83,-750 594.83,-750 598.92,-750 603,-754.08 603,-758.17 603,-758.17 603,-766.33 603,-766.33 603,-770.42 598.92,-774.5 594.83,-774.5"/>
<text text-anchor="middle" x="490" y="-757.2" font-family="Arial" font-size="14.00" fill="#c6c5fe">pages/homePage/HomePage.jsx</text>
</g>
<!-- App.js&#45;&gt;pages/homePage/HomePage.jsx -->
<g id="edge8" class="edge">
<title>App.js&#45;&gt;pages/homePage/HomePage.jsx</title>
<path fill="none" stroke="#757575" d="M279.12,-582.97C288.95,-615.08 319.37,-699.69 377,-740.25 379.11,-741.73 381.29,-743.12 383.53,-744.42"/>
<polygon fill="#757575" stroke="#757575" points="381.87,-747.5 392.37,-748.89 385.03,-741.26 381.87,-747.5"/>
</g>
<!-- context/AuthReducer.js -->
<g id="node35" class="node">
<title>context/AuthReducer.js</title>
<path fill="none" stroke="#cfffac" d="M1473.83,-851.5C1473.83,-851.5 1327.17,-851.5 1327.17,-851.5 1323.08,-851.5 1319,-847.42 1319,-843.33 1319,-843.33 1319,-835.17 1319,-835.17 1319,-831.08 1323.08,-827 1327.17,-827 1327.17,-827 1473.83,-827 1473.83,-827 1477.92,-827 1482,-831.08 1482,-835.17 1482,-835.17 1482,-843.33 1482,-843.33 1482,-847.42 1477.92,-851.5 1473.83,-851.5"/>
<text text-anchor="middle" x="1400.5" y="-834.2" font-family="Arial" font-size="14.00" fill="#cfffac">context/AuthReducer.js</text>
</g>
<!-- context/AuthContext.js&#45;&gt;context/AuthReducer.js -->
<g id="edge46" class="edge">
<title>context/AuthContext.js&#45;&gt;context/AuthReducer.js</title>
<path fill="none" stroke="#757575" d="M1145.05,-839.25C1193.57,-839.25 1256.23,-839.25 1307.23,-839.25"/>
<polygon fill="#757575" stroke="#757575" points="1307.08,-842.75 1317.08,-839.25 1307.08,-835.75 1307.08,-842.75"/>
</g>
<!-- components/navbar/Navbar.jsx -->
<g id="node30" class="node">
<title>components/navbar/Navbar.jsx</title>
<path fill="none" stroke="#c6c5fe" d="M1162.71,-657.5C1162.71,-657.5 969.54,-657.5 969.54,-657.5 965.46,-657.5 961.38,-653.42 961.38,-649.33 961.38,-649.33 961.38,-641.17 961.38,-641.17 961.38,-637.08 965.46,-633 969.54,-633 969.54,-633 1162.71,-633 1162.71,-633 1166.79,-633 1170.88,-637.08 1170.88,-641.17 1170.88,-641.17 1170.88,-649.33 1170.88,-649.33 1170.88,-653.42 1166.79,-657.5 1162.71,-657.5"/>
<text text-anchor="middle" x="1066.12" y="-640.2" font-family="Arial" font-size="14.00" fill="#c6c5fe">components/navbar/Navbar.jsx</text>
</g>
<!-- pages/AboutUsPage.jsx&#45;&gt;components/navbar/Navbar.jsx -->
<g id="edge51" class="edge">
<title>pages/AboutUsPage.jsx&#45;&gt;components/navbar/Navbar.jsx</title>
<path fill="none" stroke="#757575" d="M574.93,-575.19C656.9,-580.71 785.01,-591.18 895,-608.25 931.2,-613.87 971.26,-622.46 1003.41,-629.95"/>
<polygon fill="#757575" stroke="#757575" points="1002.42,-633.32 1012.96,-632.2 1004.03,-626.5 1002.42,-633.32"/>
</g>
<!-- pages/AllTravelsPage.jsx&#45;&gt;context/AuthContext.js -->
<g id="edge58" class="edge">
<title>pages/AllTravelsPage.jsx&#45;&gt;context/AuthContext.js</title>
<path fill="none" stroke="#757575" d="M778.57,-504.6C822.52,-555.92 991.02,-752.71 1046.96,-818.03"/>
<polygon fill="#757575" stroke="#757575" points="1044.22,-820.22 1053.38,-825.54 1049.54,-815.66 1044.22,-820.22"/>
</g>
<!-- components/AddNote.jsx -->
<g id="node12" class="node">
<title>components/AddNote.jsx</title>
<path fill="none" stroke="#c6c5fe" d="M1145.83,-421.5C1145.83,-421.5 986.42,-421.5 986.42,-421.5 982.33,-421.5 978.25,-417.42 978.25,-413.33 978.25,-413.33 978.25,-405.17 978.25,-405.17 978.25,-401.08 982.33,-397 986.42,-397 986.42,-397 1145.83,-397 1145.83,-397 1149.92,-397 1154,-401.08 1154,-405.17 1154,-405.17 1154,-413.33 1154,-413.33 1154,-417.42 1149.92,-421.5 1145.83,-421.5"/>
<text text-anchor="middle" x="1066.12" y="-404.2" font-family="Arial" font-size="14.00" fill="#c6c5fe">components/AddNote.jsx</text>
</g>
<!-- pages/AllTravelsPage.jsx&#45;&gt;components/AddNote.jsx -->
<g id="edge52" class="edge">
<title>pages/AllTravelsPage.jsx&#45;&gt;components/AddNote.jsx</title>
<path fill="none" stroke="#757575" d="M813.45,-479.55C865.88,-464.91 952.11,-440.82 1008.76,-424.99"/>
<polygon fill="#757575" stroke="#757575" points="1009.53,-428.41 1018.22,-422.35 1007.65,-421.67 1009.53,-428.41"/>
</g>
<!-- pages/Pages.module.css -->
<g id="node14" class="node">
<title>pages/Pages.module.css</title>
<path fill="none" stroke="#c6c5fe" d="M1481.33,-501.5C1481.33,-501.5 1319.67,-501.5 1319.67,-501.5 1315.58,-501.5 1311.5,-497.42 1311.5,-493.33 1311.5,-493.33 1311.5,-485.17 1311.5,-485.17 1311.5,-481.08 1315.58,-477 1319.67,-477 1319.67,-477 1481.33,-477 1481.33,-477 1485.42,-477 1489.5,-481.08 1489.5,-485.17 1489.5,-485.17 1489.5,-493.33 1489.5,-493.33 1489.5,-497.42 1485.42,-501.5 1481.33,-501.5"/>
<text text-anchor="middle" x="1400.5" y="-484.2" font-family="Arial" font-size="14.00" fill="#c6c5fe">pages/Pages.module.css</text>
</g>
<!-- pages/AllTravelsPage.jsx&#45;&gt;pages/Pages.module.css -->
<g id="edge60" class="edge">
<title>pages/AllTravelsPage.jsx&#45;&gt;pages/Pages.module.css</title>
<path fill="none" stroke="#757575" d="M855.47,-499.93C869.56,-503.95 883.33,-509.8 895,-518.25 921.12,-537.17 903.11,-565.06 931,-581.25 1034.89,-641.54 1083.96,-607.14 1201.25,-581.25 1218.11,-577.53 1311.16,-532.62 1363.58,-506.95"/>
<polygon fill="#757575" stroke="#757575" points="1365,-510.15 1372.43,-502.61 1361.91,-503.87 1365,-510.15"/>
</g>
<!-- components/MoreWindow.jsx -->
<g id="node15" class="node">
<title>components/MoreWindow.jsx</title>
<path fill="none" stroke="#c6c5fe" d="M1159.33,-378.5C1159.33,-378.5 972.92,-378.5 972.92,-378.5 968.83,-378.5 964.75,-374.42 964.75,-370.33 964.75,-370.33 964.75,-362.17 964.75,-362.17 964.75,-358.08 968.83,-354 972.92,-354 972.92,-354 1159.33,-354 1159.33,-354 1163.42,-354 1167.5,-358.08 1167.5,-362.17 1167.5,-362.17 1167.5,-370.33 1167.5,-370.33 1167.5,-374.42 1163.42,-378.5 1159.33,-378.5"/>
<text text-anchor="middle" x="1066.12" y="-361.2" font-family="Arial" font-size="14.00" fill="#c6c5fe">components/MoreWindow.jsx</text>
</g>
<!-- pages/AllTravelsPage.jsx&#45;&gt;components/MoreWindow.jsx -->
<g id="edge53" class="edge">
<title>pages/AllTravelsPage.jsx&#45;&gt;components/MoreWindow.jsx</title>
<path fill="none" stroke="#757575" d="M806.96,-479.51C833.51,-469.6 868.51,-454.04 895,-433.25 915.15,-417.44 908.89,-401.18 931,-388.25 938.07,-384.11 945.69,-380.69 953.58,-377.87"/>
<polygon fill="#757575" stroke="#757575" points="954.58,-381.23 963.04,-374.85 952.45,-374.56 954.58,-381.23"/>
</g>
<!-- firebase.js -->
<g id="node17" class="node">
<title>firebase.js</title>
<path fill="none" stroke="#cfffac" d="M1433.33,-458.5C1433.33,-458.5 1367.67,-458.5 1367.67,-458.5 1363.58,-458.5 1359.5,-454.42 1359.5,-450.33 1359.5,-450.33 1359.5,-442.17 1359.5,-442.17 1359.5,-438.08 1363.58,-434 1367.67,-434 1367.67,-434 1433.33,-434 1433.33,-434 1437.42,-434 1441.5,-438.08 1441.5,-442.17 1441.5,-442.17 1441.5,-450.33 1441.5,-450.33 1441.5,-454.42 1437.42,-458.5 1433.33,-458.5"/>
<text text-anchor="middle" x="1400.5" y="-441.2" font-family="Arial" font-size="14.00" fill="#cfffac">firebase.js</text>
</g>
<!-- pages/AllTravelsPage.jsx&#45;&gt;firebase.js -->
<g id="edge59" class="edge">
<title>pages/AllTravelsPage.jsx&#45;&gt;firebase.js</title>
<path fill="none" stroke="#757575" d="M855.61,-504.25C869.17,-507.78 882.73,-512.35 895,-518.25 913.77,-527.28 911.42,-541.16 931,-548.25 987.47,-568.69 1150.82,-580.86 1201.25,-548.25 1233.99,-527.08 1206.01,-491.58 1237.25,-468.25 1268.66,-444.8 1313.32,-440.23 1347.83,-441"/>
<polygon fill="#757575" stroke="#757575" points="1347.47,-444.49 1357.6,-441.39 1347.75,-437.5 1347.47,-444.49"/>
</g>
<!-- components/auth/AuthUser.jsx -->
<g id="node19" class="node">
<title>components/auth/AuthUser.jsx</title>
<path fill="none" stroke="#c6c5fe" d="M1161.96,-539.5C1161.96,-539.5 970.29,-539.5 970.29,-539.5 966.21,-539.5 962.12,-535.42 962.12,-531.33 962.12,-531.33 962.12,-523.17 962.12,-523.17 962.12,-519.08 966.21,-515 970.29,-515 970.29,-515 1161.96,-515 1161.96,-515 1166.04,-515 1170.12,-519.08 1170.12,-523.17 1170.12,-523.17 1170.12,-531.33 1170.12,-531.33 1170.12,-535.42 1166.04,-539.5 1161.96,-539.5"/>
<text text-anchor="middle" x="1066.12" y="-522.2" font-family="Arial" font-size="14.00" fill="#c6c5fe">components/auth/AuthUser.jsx</text>
</g>
<!-- pages/AllTravelsPage.jsx&#45;&gt;components/auth/AuthUser.jsx -->
<g id="edge54" class="edge">
<title>pages/AllTravelsPage.jsx&#45;&gt;components/auth/AuthUser.jsx</title>
<path fill="none" stroke="#757575" d="M855.54,-502.56C885.32,-506.07 919.07,-510.04 950.64,-513.76"/>
<polygon fill="#757575" stroke="#757575" points="949.86,-517.2 960.2,-514.89 950.68,-510.24 949.86,-517.2"/>
</g>
<!-- components/emptyPage/EmptyPage.jsx -->
<g id="node24" class="node">
<title>components/emptyPage/EmptyPage.jsx</title>
<path fill="none" stroke="#c6c5fe" d="M1193.08,-180.5C1193.08,-180.5 939.17,-180.5 939.17,-180.5 935.08,-180.5 931,-176.42 931,-172.33 931,-172.33 931,-164.17 931,-164.17 931,-160.08 935.08,-156 939.17,-156 939.17,-156 1193.08,-156 1193.08,-156 1197.17,-156 1201.25,-160.08 1201.25,-164.17 1201.25,-164.17 1201.25,-172.33 1201.25,-172.33 1201.25,-176.42 1197.17,-180.5 1193.08,-180.5"/>
<text text-anchor="middle" x="1066.12" y="-163.2" font-family="Arial" font-size="14.00" fill="#c6c5fe">components/emptyPage/EmptyPage.jsx</text>
</g>
<!-- pages/AllTravelsPage.jsx&#45;&gt;components/emptyPage/EmptyPage.jsx -->
<g id="edge55" class="edge">
<title>pages/AllTravelsPage.jsx&#45;&gt;components/emptyPage/EmptyPage.jsx</title>
<path fill="none" stroke="#757575" d="M822.41,-479.59C848.23,-470.81 877.24,-456.4 895,-433.25 951.58,-359.51 873.67,-300.41 931,-227.25 946.85,-207.02 971.08,-193.57 994.61,-184.7"/>
<polygon fill="#757575" stroke="#757575" points="995.63,-188.05 1003.91,-181.44 993.31,-181.44 995.63,-188.05"/>
</g>
<!-- pages/AllTravelsPage.jsx&#45;&gt;components/navbar/Navbar.jsx -->
<g id="edge56" class="edge">
<title>pages/AllTravelsPage.jsx&#45;&gt;components/navbar/Navbar.jsx</title>
<path fill="none" stroke="#757575" d="M855.5,-497.86C869.91,-502.06 883.79,-508.51 895,-518.25 930.98,-549.5 894.86,-588.19 931,-619.25 937.06,-624.46 943.85,-628.75 951.07,-632.26"/>
<polygon fill="#757575" stroke="#757575" points="949.19,-635.27 959.76,-636 951.96,-628.84 949.19,-635.27"/>
</g>
<!-- components/spinner/Spinner.jsx -->
<g id="node31" class="node">
<title>components/spinner/Spinner.jsx</title>
<path fill="none" stroke="#c6c5fe" d="M1167.21,-260.5C1167.21,-260.5 965.04,-260.5 965.04,-260.5 960.96,-260.5 956.88,-256.42 956.88,-252.33 956.88,-252.33 956.88,-244.17 956.88,-244.17 956.88,-240.08 960.96,-236 965.04,-236 965.04,-236 1167.21,-236 1167.21,-236 1171.29,-236 1175.38,-240.08 1175.38,-244.17 1175.38,-244.17 1175.38,-252.33 1175.38,-252.33 1175.38,-256.42 1171.29,-260.5 1167.21,-260.5"/>
<text text-anchor="middle" x="1066.12" y="-243.2" font-family="Arial" font-size="14.00" fill="#c6c5fe">components/spinner/Spinner.jsx</text>
</g>
<!-- pages/AllTravelsPage.jsx&#45;&gt;components/spinner/Spinner.jsx -->
<g id="edge57" class="edge">
<title>pages/AllTravelsPage.jsx&#45;&gt;components/spinner/Spinner.jsx</title>
<path fill="none" stroke="#757575" d="M815.69,-479.53C842.01,-470.4 873.6,-455.67 895,-433.25 924.18,-402.68 904.88,-378.46 931,-345.25 957.94,-311 1000.02,-283.3 1029.85,-266.4"/>
<polygon fill="#757575" stroke="#757575" points="1031.46,-269.51 1038.52,-261.61 1028.08,-263.38 1031.46,-269.51"/>
</g>
<!-- pages/LoginPage.jsx&#45;&gt;context/AuthContext.js -->
<g id="edge64" class="edge">
<title>pages/LoginPage.jsx&#45;&gt;context/AuthContext.js</title>
<path fill="none" stroke="#757575" d="M564.96,-723.48C578.65,-726.99 592.06,-732.56 603,-741.25 633.54,-765.49 606.71,-799.39 639,-821.25 692,-857.13 867.76,-852.76 976.29,-846.14"/>
<polygon fill="#757575" stroke="#757575" points="976.29,-849.64 986.05,-845.52 975.85,-842.66 976.29,-849.64"/>
</g>
<!-- pages/LoginPage.jsx&#45;&gt;pages/Pages.module.css -->
<g id="edge66" class="edge">
<title>pages/LoginPage.jsx&#45;&gt;pages/Pages.module.css</title>
<path fill="none" stroke="#757575" d="M565.08,-727.84C726.74,-744.93 1104.46,-775.36 1201.25,-699.25 1249.05,-661.66 1198.33,-613.98 1237.25,-567.25 1262.61,-536.8 1302.64,-517.38 1336.6,-505.53"/>
<polygon fill="#757575" stroke="#757575" points="1337.56,-508.9 1345.95,-502.43 1335.35,-502.26 1337.56,-508.9"/>
</g>
<!-- pages/LoginPage.jsx&#45;&gt;firebase.js -->
<g id="edge65" class="edge">
<title>pages/LoginPage.jsx&#45;&gt;firebase.js</title>
<path fill="none" stroke="#757575" d="M565.08,-716.15C742.32,-708.4 1177.85,-687.3 1201.25,-666.25 1267.74,-606.42 1172.6,-530.05 1237.25,-468.25 1266.17,-440.6 1312.35,-436.71 1348.05,-438.8"/>
<polygon fill="#757575" stroke="#757575" points="1347.49,-442.27 1357.73,-439.55 1348.04,-435.29 1347.49,-442.27"/>
</g>
<!-- components/auth/SignIn.jsx -->
<g id="node21" class="node">
<title>components/auth/SignIn.jsx</title>
<path fill="none" stroke="#c6c5fe" d="M853.83,-892.5C853.83,-892.5 680.17,-892.5 680.17,-892.5 676.08,-892.5 672,-888.42 672,-884.33 672,-884.33 672,-876.17 672,-876.17 672,-872.08 676.08,-868 680.17,-868 680.17,-868 853.83,-868 853.83,-868 857.92,-868 862,-872.08 862,-876.17 862,-876.17 862,-884.33 862,-884.33 862,-888.42 857.92,-892.5 853.83,-892.5"/>
<text text-anchor="middle" x="767" y="-875.2" font-family="Arial" font-size="14.00" fill="#c6c5fe">components/auth/SignIn.jsx</text>
</g>
<!-- pages/LoginPage.jsx&#45;&gt;components/auth/SignIn.jsx -->
<g id="edge61" class="edge">
<title>pages/LoginPage.jsx&#45;&gt;components/auth/SignIn.jsx</title>
<path fill="none" stroke="#757575" d="M565.19,-722.37C579.02,-725.94 592.42,-731.82 603,-741.25 642.34,-776.33 599.8,-819.02 639,-854.25 645.59,-860.17 653.16,-864.89 661.25,-868.63"/>
<polygon fill="#757575" stroke="#757575" points="659.75,-871.8 670.33,-872.3 662.37,-865.31 659.75,-871.8"/>
</g>
<!-- components/auth/SignUp.jsx -->
<g id="node23" class="node">
<title>components/auth/SignUp.jsx</title>
<path fill="none" stroke="#c6c5fe" d="M856.83,-812.5C856.83,-812.5 677.17,-812.5 677.17,-812.5 673.08,-812.5 669,-808.42 669,-804.33 669,-804.33 669,-796.17 669,-796.17 669,-792.08 673.08,-788 677.17,-788 677.17,-788 856.83,-788 856.83,-788 860.92,-788 865,-792.08 865,-796.17 865,-796.17 865,-804.33 865,-804.33 865,-808.42 860.92,-812.5 856.83,-812.5"/>
<text text-anchor="middle" x="767" y="-795.2" font-family="Arial" font-size="14.00" fill="#c6c5fe">components/auth/SignUp.jsx</text>
</g>
<!-- pages/LoginPage.jsx&#45;&gt;components/auth/SignUp.jsx -->
<g id="edge62" class="edge">
<title>pages/LoginPage.jsx&#45;&gt;components/auth/SignUp.jsx</title>
<path fill="none" stroke="#757575" d="M565.22,-727.87C578.23,-731.03 591.33,-735.35 603,-741.25 622.37,-751.04 619.67,-764.38 639,-774.25 646.53,-778.09 654.58,-781.37 662.84,-784.16"/>
<polygon fill="#757575" stroke="#757575" points="661.75,-787.48 672.34,-787.1 663.83,-780.8 661.75,-787.48"/>
</g>
<!-- pages/LoginPage.jsx&#45;&gt;components/navbar/Navbar.jsx -->
<g id="edge63" class="edge">
<title>pages/LoginPage.jsx&#45;&gt;components/navbar/Navbar.jsx</title>
<path fill="none" stroke="#757575" d="M506.15,-706.56C531.62,-686.14 585.51,-646.81 639,-632.25 760.15,-599.28 907.85,-615.71 993.71,-630.55"/>
<polygon fill="#757575" stroke="#757575" points="992.95,-633.97 1003.41,-632.27 994.17,-627.08 992.95,-633.97"/>
</g>
<!-- pages/TravelPage.jsx&#45;&gt;components/journalSource.js -->
<g id="edge71" class="edge">
<title>pages/TravelPage.jsx&#45;&gt;components/journalSource.js</title>
<path fill="none" stroke="#757575" d="M500.94,-274.73C521.75,-248.15 570.62,-183.63 603,-124.25 622.84,-87.87 606.99,-64.57 639,-38.25 644.42,-33.79 650.4,-30.04 656.73,-26.88"/>
<polygon fill="#757575" stroke="#757575" points="657.8,-30.23 665.54,-23 654.98,-23.82 657.8,-30.23"/>
</g>
<!-- pages/TravelPage.jsx&#45;&gt;context/AuthContext.js -->
<g id="edge76" class="edge">
<title>pages/TravelPage.jsx&#45;&gt;context/AuthContext.js</title>
<path fill="none" stroke="#757575" d="M495.35,-299.98C510.02,-341.4 561.1,-474.59 639,-559.25 757.03,-687.51 945.6,-784.12 1026.36,-821.88"/>
<polygon fill="#757575" stroke="#757575" points="1024.65,-824.95 1035.2,-825.98 1027.59,-818.6 1024.65,-824.95"/>
</g>
<!-- pages/TravelPage.jsx&#45;&gt;pages/Pages.module.css -->
<g id="edge78" class="edge">
<title>pages/TravelPage.jsx&#45;&gt;pages/Pages.module.css</title>
<path fill="none" stroke="#757575" d="M506.81,-274.82C532.81,-255.06 586.89,-216.74 639,-197.25 762.32,-151.12 799.81,-158.4 931,-147.25 990.84,-142.16 1156.47,-107.23 1201.25,-147.25 1254.6,-194.94 1187.23,-416.08 1237.25,-467.25 1253.8,-484.18 1276.76,-492.43 1300.21,-495.84"/>
<polygon fill="#757575" stroke="#757575" points="1299.53,-499.29 1309.86,-496.94 1300.32,-492.33 1299.53,-499.29"/>
</g>
<!-- pages/TravelPage.jsx&#45;&gt;components/MoreWindow.jsx -->
<g id="edge68" class="edge">
<title>pages/TravelPage.jsx&#45;&gt;components/MoreWindow.jsx</title>
<path fill="none" stroke="#757575" d="M515.05,-300C543.68,-314.45 593.36,-337.29 639,-347.25 743.73,-370.1 866.26,-373.19 952.98,-371.55"/>
<polygon fill="#757575" stroke="#757575" points="953.01,-375.05 962.93,-371.34 952.85,-368.05 953.01,-375.05"/>
</g>
<!-- pages/TravelPage.jsx&#45;&gt;firebase.js -->
<g id="edge77" class="edge">
<title>pages/TravelPage.jsx&#45;&gt;firebase.js</title>
<path fill="none" stroke="#757575" d="M506.5,-274.69C529.47,-255.55 573.06,-217.18 603,-178.25 622.9,-152.38 610.83,-130.73 639,-114.25 692.93,-82.71 1154.28,-73.06 1201.25,-114.25 1293.27,-194.93 1160.62,-291.82 1237.25,-387.25 1264.04,-420.61 1311.39,-435.11 1348.05,-441.41"/>
<polygon fill="#757575" stroke="#757575" points="1347.14,-444.81 1357.56,-442.88 1348.21,-437.89 1347.14,-444.81"/>
</g>
<!-- pages/TravelPage.jsx&#45;&gt;components/auth/AuthUser.jsx -->
<g id="edge69" class="edge">
<title>pages/TravelPage.jsx&#45;&gt;components/auth/AuthUser.jsx</title>
<path fill="none" stroke="#757575" d="M499.27,-299.65C519.33,-328.61 573.77,-400.69 639,-433.25 741.92,-484.62 783.08,-444.73 895,-471.25 907.15,-474.13 971.03,-495.44 1016.94,-510.92"/>
<polygon fill="#757575" stroke="#757575" points="1015.57,-514.15 1026.16,-514.04 1017.81,-507.52 1015.57,-514.15"/>
</g>
<!-- pages/TravelPage.jsx&#45;&gt;components/emptyPage/EmptyPage.jsx -->
<g id="edge70" class="edge">
<title>pages/TravelPage.jsx&#45;&gt;components/emptyPage/EmptyPage.jsx</title>
<path fill="none" stroke="#757575" d="M545.37,-274.56C628.31,-255.39 791.52,-218.41 931,-191.25 945.65,-188.4 961.23,-185.55 976.4,-182.88"/>
<polygon fill="#757575" stroke="#757575" points="976.61,-186.4 985.86,-181.24 975.41,-179.5 976.61,-186.4"/>
</g>
<!-- components/map/Map.jsx -->
<g id="node27" class="node">
<title>components/map/Map.jsx</title>
<path fill="none" stroke="#c6c5fe" d="M1146.96,-62.5C1146.96,-62.5 985.29,-62.5 985.29,-62.5 981.21,-62.5 977.12,-58.42 977.12,-54.33 977.12,-54.33 977.12,-46.17 977.12,-46.17 977.12,-42.08 981.21,-38 985.29,-38 985.29,-38 1146.96,-38 1146.96,-38 1151.04,-38 1155.12,-42.08 1155.12,-46.17 1155.12,-46.17 1155.12,-54.33 1155.12,-54.33 1155.12,-58.42 1151.04,-62.5 1146.96,-62.5"/>
<text text-anchor="middle" x="1066.12" y="-45.2" font-family="Arial" font-size="14.00" fill="#c6c5fe">components/map/Map.jsx</text>
</g>
<!-- pages/TravelPage.jsx&#45;&gt;components/map/Map.jsx -->
<g id="edge72" class="edge">
<title>pages/TravelPage.jsx&#45;&gt;components/map/Map.jsx</title>
<path fill="none" stroke="#757575" d="M499.68,-274.57C530.57,-229.45 633.69,-79.22 639,-76.25 692.96,-46.06 857.59,-44.18 965.71,-46.53"/>
<polygon fill="#757575" stroke="#757575" points="965.38,-50.02 975.46,-46.76 965.54,-43.03 965.38,-50.02"/>
</g>
<!-- pages/TravelPage.jsx&#45;&gt;components/navbar/Navbar.jsx -->
<g id="edge73" class="edge">
<title>pages/TravelPage.jsx&#45;&gt;components/navbar/Navbar.jsx</title>
<path fill="none" stroke="#757575" d="M495.43,-299.88C509.65,-338.46 557.96,-455.64 639,-513.25 734.59,-581.2 792.54,-520.19 895,-577.25 914.5,-588.11 911.48,-601.43 931,-612.25 943.87,-619.39 958.27,-625 972.74,-629.4"/>
<polygon fill="#757575" stroke="#757575" points="971.76,-632.76 982.33,-632.13 973.67,-626.03 971.76,-632.76"/>
</g>
<!-- pages/TravelPage.jsx&#45;&gt;components/spinner/Spinner.jsx -->
<g id="edge74" class="edge">
<title>pages/TravelPage.jsx&#45;&gt;components/spinner/Spinner.jsx</title>
<path fill="none" stroke="#757575" d="M566.94,-282.09C663.54,-275.53 831.44,-264.12 945.36,-256.39"/>
<polygon fill="#757575" stroke="#757575" points="945.31,-259.9 955.05,-255.73 944.83,-252.91 945.31,-259.9"/>
</g>
<!-- components/travelLists/TravelLists.jsx -->
<g id="node34" class="node">
<title>components/travelLists/TravelLists.jsx</title>
<path fill="none" stroke="#c6c5fe" d="M886.83,-338.5C886.83,-338.5 647.17,-338.5 647.17,-338.5 643.08,-338.5 639,-334.42 639,-330.33 639,-330.33 639,-322.17 639,-322.17 639,-318.08 643.08,-314 647.17,-314 647.17,-314 886.83,-314 886.83,-314 890.92,-314 895,-318.08 895,-322.17 895,-322.17 895,-330.33 895,-330.33 895,-334.42 890.92,-338.5 886.83,-338.5"/>
<text text-anchor="middle" x="767" y="-321.2" font-family="Arial" font-size="14.00" fill="#c6c5fe">components/travelLists/TravelLists.jsx</text>
</g>
<!-- pages/TravelPage.jsx&#45;&gt;components/travelLists/TravelLists.jsx -->
<g id="edge75" class="edge">
<title>pages/TravelPage.jsx&#45;&gt;components/travelLists/TravelLists.jsx</title>
<path fill="none" stroke="#757575" d="M566.87,-298.01C597.16,-302.31 632.49,-307.32 664.9,-311.91"/>
<polygon fill="#757575" stroke="#757575" points="664.34,-315.37 674.73,-313.31 665.32,-308.44 664.34,-315.37"/>
</g>
<!-- pages/TravelersJournal.jsx&#45;&gt;context/AuthContext.js -->
<g id="edge85" class="edge">
<title>pages/TravelersJournal.jsx&#45;&gt;context/AuthContext.js</title>
<path fill="none" stroke="#757575" d="M822.32,-424.99C848.11,-433.78 877.13,-448.19 895,-471.25 948.98,-540.91 894.98,-585.82 931,-666.25 958.97,-728.71 1013.95,-788.9 1044.11,-819.1"/>
<polygon fill="#757575" stroke="#757575" points="1041.26,-821.21 1050.83,-825.74 1046.18,-816.23 1041.26,-821.21"/>
</g>
<!-- pages/TravelersJournal.jsx&#45;&gt;components/AddNote.jsx -->
<g id="edge79" class="edge">
<title>pages/TravelersJournal.jsx&#45;&gt;components/AddNote.jsx</title>
<path fill="none" stroke="#757575" d="M859.98,-411.32C893.74,-410.98 932.09,-410.59 966.42,-410.25"/>
<polygon fill="#757575" stroke="#757575" points="966.42,-413.75 976.38,-410.15 966.35,-406.75 966.42,-413.75"/>
</g>
<!-- pages/TravelersJournal.jsx&#45;&gt;pages/Pages.module.css -->
<g id="edge87" class="edge">
<title>pages/TravelersJournal.jsx&#45;&gt;pages/Pages.module.css</title>
<path fill="none" stroke="#757575" d="M839.3,-424.96C857.58,-428.73 877.13,-433.22 895,-438.25 911.38,-442.86 914.38,-447.64 931,-451.25 1056.29,-478.45 1204.26,-486.57 1299.88,-488.79"/>
<polygon fill="#757575" stroke="#757575" points="1299.69,-492.29 1309.76,-489 1299.84,-485.29 1299.69,-492.29"/>
</g>
<!-- pages/TravelersJournal.jsx&#45;&gt;components/MoreWindow.jsx -->
<g id="edge80" class="edge">
<title>pages/TravelersJournal.jsx&#45;&gt;components/MoreWindow.jsx</title>
<path fill="none" stroke="#757575" d="M849.98,-399.56C887.66,-393.73 932.54,-386.78 971.54,-380.74"/>
<polygon fill="#757575" stroke="#757575" points="972.06,-384.2 981.4,-379.21 970.99,-377.28 972.06,-384.2"/>
</g>
<!-- pages/TravelersJournal.jsx&#45;&gt;firebase.js -->
<g id="edge86" class="edge">
<title>pages/TravelersJournal.jsx&#45;&gt;firebase.js</title>
<path fill="none" stroke="#757575" d="M860.13,-423.66C883.23,-426.18 908,-428.59 931,-430.25 1082.14,-441.16 1261.25,-444.66 1347.7,-445.76"/>
<polygon fill="#757575" stroke="#757575" points="1347.47,-449.26 1357.51,-445.88 1347.55,-442.26 1347.47,-449.26"/>
</g>
<!-- pages/TravelersJournal.jsx&#45;&gt;components/auth/AuthUser.jsx -->
<g id="edge81" class="edge">
<title>pages/TravelersJournal.jsx&#45;&gt;components/auth/AuthUser.jsx</title>
<path fill="none" stroke="#757575" d="M860.08,-421.32C872.55,-425.26 884.61,-430.73 895,-438.25 921.12,-457.17 904.78,-482.47 931,-501.25 937.22,-505.7 944,-509.45 951.1,-512.59"/>
<polygon fill="#757575" stroke="#757575" points="949.71,-515.81 960.3,-516.22 952.28,-509.3 949.71,-515.81"/>
</g>
<!-- pages/TravelersJournal.jsx&#45;&gt;components/emptyPage/EmptyPage.jsx -->
<g id="edge82" class="edge">
<title>pages/TravelersJournal.jsx&#45;&gt;components/emptyPage/EmptyPage.jsx</title>
<path fill="none" stroke="#757575" d="M812.26,-399.52C839.7,-389.49 873.68,-372.85 895,-347.25 930.64,-304.47 894.12,-268.97 931,-227.25 948.76,-207.16 974.63,-193.61 998.93,-184.62"/>
<polygon fill="#757575" stroke="#757575" points="999.85,-188.01 1008.15,-181.42 997.55,-181.4 999.85,-188.01"/>
</g>
<!-- pages/TravelersJournal.jsx&#45;&gt;components/navbar/Navbar.jsx -->
<g id="edge83" class="edge">
<title>pages/TravelersJournal.jsx&#45;&gt;components/navbar/Navbar.jsx</title>
<path fill="none" stroke="#757575" d="M814.06,-424.94C840.47,-434.18 872.71,-449.01 895,-471.25 921.75,-497.93 906.92,-519.14 931,-548.25 958.85,-581.93 1000.94,-609.82 1030.53,-626.92"/>
<polygon fill="#757575" stroke="#757575" points="1028.68,-629.9 1039.11,-631.77 1032.12,-623.8 1028.68,-629.9"/>
</g>
<!-- pages/TravelersJournal.jsx&#45;&gt;components/spinner/Spinner.jsx -->
<g id="edge84" class="edge">
<title>pages/TravelersJournal.jsx&#45;&gt;components/spinner/Spinner.jsx</title>
<path fill="none" stroke="#757575" d="M793.51,-399.7C819.31,-386.89 860.22,-366.25 895,-347.25 944.33,-320.3 1000.5,-287.11 1034.36,-266.83"/>
<polygon fill="#757575" stroke="#757575" points="1036.05,-269.9 1042.82,-261.75 1032.44,-263.89 1036.05,-269.9"/>
</g>
<!-- pages/homePage/HomePage.jsx&#45;&gt;components/navbar/Navbar.jsx -->
<g id="edge88" class="edge">
<title>pages/homePage/HomePage.jsx&#45;&gt;components/navbar/Navbar.jsx</title>
<path fill="none" stroke="#757575" d="M556.17,-749.55C571.53,-746.53 587.85,-743.3 603,-740.25 741.04,-712.51 902.06,-679.19 992.96,-660.29"/>
<polygon fill="#757575" stroke="#757575" points="993.67,-663.72 1002.75,-658.25 992.25,-656.86 993.67,-663.72"/>
</g>
<!-- pages/homePage/Home.module.css -->
<g id="node40" class="node">
<title>pages/homePage/Home.module.css</title>
<path fill="none" stroke="#cfffac" d="M883.08,-935.5C883.08,-935.5 650.92,-935.5 650.92,-935.5 646.83,-935.5 642.75,-931.42 642.75,-927.33 642.75,-927.33 642.75,-919.17 642.75,-919.17 642.75,-915.08 646.83,-911 650.92,-911 650.92,-911 883.08,-911 883.08,-911 887.17,-911 891.25,-915.08 891.25,-919.17 891.25,-919.17 891.25,-927.33 891.25,-927.33 891.25,-931.42 887.17,-935.5 883.08,-935.5"/>
<text text-anchor="middle" x="767" y="-918.2" font-family="Arial" font-size="14.00" fill="#cfffac">pages/homePage/Home.module.css</text>
</g>
<!-- pages/homePage/HomePage.jsx&#45;&gt;pages/homePage/Home.module.css -->
<g id="edge89" class="edge">
<title>pages/homePage/HomePage.jsx&#45;&gt;pages/homePage/Home.module.css</title>
<path fill="none" stroke="#757575" d="M500.09,-774.78C521.07,-802.64 575.92,-869.78 639,-901.25 643,-903.24 647.14,-905.06 651.39,-906.72"/>
<polygon fill="#757575" stroke="#757575" points="650.11,-909.97 660.7,-910 652.44,-903.37 650.11,-909.97"/>
</g>
<!-- App.test.js -->
<g id="node10" class="node">
<title>App.test.js</title>
<path fill="none" stroke="#c6c5fe" d="M119.58,-582.5C119.58,-582.5 52.42,-582.5 52.42,-582.5 48.33,-582.5 44.25,-578.42 44.25,-574.33 44.25,-574.33 44.25,-566.17 44.25,-566.17 44.25,-562.08 48.33,-558 52.42,-558 52.42,-558 119.58,-558 119.58,-558 123.67,-558 127.75,-562.08 127.75,-566.17 127.75,-566.17 127.75,-574.33 127.75,-574.33 127.75,-578.42 123.67,-582.5 119.58,-582.5"/>
<text text-anchor="middle" x="86" y="-565.2" font-family="Arial" font-size="14.00" fill="#c6c5fe">App.test.js</text>
</g>
<!-- App.test.js&#45;&gt;App.js -->
<g id="edge9" class="edge">
<title>App.test.js&#45;&gt;App.js</title>
<path fill="none" stroke="#757575" d="M127.93,-570.25C159.68,-570.25 203.41,-570.25 234.63,-570.25"/>
<polygon fill="#757575" stroke="#757575" points="234.42,-573.75 244.42,-570.25 234.42,-566.75 234.42,-573.75"/>
</g>
<!-- colors.css -->
<g id="node11" class="node">
<title>colors.css</title>
<path fill="none" stroke="#cfffac" d="M1723.83,-378.5C1723.83,-378.5 1658.92,-378.5 1658.92,-378.5 1654.83,-378.5 1650.75,-374.42 1650.75,-370.33 1650.75,-370.33 1650.75,-362.17 1650.75,-362.17 1650.75,-358.08 1654.83,-354 1658.92,-354 1658.92,-354 1723.83,-354 1723.83,-354 1727.92,-354 1732,-358.08 1732,-362.17 1732,-362.17 1732,-370.33 1732,-370.33 1732,-374.42 1727.92,-378.5 1723.83,-378.5"/>
<text text-anchor="middle" x="1691.38" y="-361.2" font-family="Arial" font-size="14.00" fill="#cfffac">colors.css</text>
</g>
<!-- components/travelLists/TravelLists.module.css -->
<g id="node13" class="node">
<title>components/travelLists/TravelLists.module.css</title>
<path fill="none" stroke="#c6c5fe" d="M1548.46,-221.5C1548.46,-221.5 1252.54,-221.5 1252.54,-221.5 1248.46,-221.5 1244.38,-217.42 1244.38,-213.33 1244.38,-213.33 1244.38,-205.17 1244.38,-205.17 1244.38,-201.08 1248.46,-197 1252.54,-197 1252.54,-197 1548.46,-197 1548.46,-197 1552.54,-197 1556.62,-201.08 1556.62,-205.17 1556.62,-205.17 1556.62,-213.33 1556.62,-213.33 1556.62,-217.42 1552.54,-221.5 1548.46,-221.5"/>
<text text-anchor="middle" x="1400.5" y="-204.2" font-family="Arial" font-size="14.00" fill="#c6c5fe">components/travelLists/TravelLists.module.css</text>
</g>
<!-- components/AddNote.jsx&#45;&gt;components/travelLists/TravelLists.module.css -->
<g id="edge10" class="edge">
<title>components/AddNote.jsx&#45;&gt;components/travelLists/TravelLists.module.css</title>
<path fill="none" stroke="#757575" d="M1154.45,-409.89C1171.71,-406.16 1188.43,-399.28 1201.25,-387.25 1253.15,-338.58 1184.67,-279.2 1237.25,-231.25 1238.2,-230.39 1239.16,-229.55 1240.14,-228.73"/>
<polygon fill="#757575" stroke="#757575" points="1242.12,-231.62 1248.12,-222.89 1237.99,-225.97 1242.12,-231.62"/>
</g>
<!-- components/AddNote.jsx&#45;&gt;pages/Pages.module.css -->
<g id="edge11" class="edge">
<title>components/AddNote.jsx&#45;&gt;pages/Pages.module.css</title>
<path fill="none" stroke="#757575" d="M1098.26,-421.91C1131.97,-435.13 1187.59,-455.54 1237.25,-467.25 1257.42,-472.01 1279.26,-475.84 1300.18,-478.89"/>
<polygon fill="#757575" stroke="#757575" points="1299.47,-482.32 1309.86,-480.25 1300.44,-475.39 1299.47,-482.32"/>
</g>
<!-- components/travelLists/TravelLists.module.css&#45;&gt;colors.css -->
<g id="edge45" class="edge">
<title>components/travelLists/TravelLists.module.css&#45;&gt;colors.css</title>
<path fill="none" stroke="#757575" d="M1541.93,-221.98C1549.47,-224.6 1556.8,-227.67 1563.75,-231.25 1614.81,-257.58 1656.31,-312.98 1676.7,-344"/>
<polygon fill="#757575" stroke="#757575" points="1673.63,-345.7 1681.97,-352.24 1679.53,-341.93 1673.63,-345.7"/>
</g>
<!-- pages/Pages.module.css&#45;&gt;colors.css -->
<g id="edge67" class="edge">
<title>pages/Pages.module.css&#45;&gt;colors.css</title>
<path fill="none" stroke="#757575" d="M1489.7,-485.97C1514.39,-482.76 1540.75,-477.08 1563.75,-467.25 1607.31,-448.63 1648.38,-410.77 1671.37,-387.06"/>
<polygon fill="#757575" stroke="#757575" points="1673.88,-389.5 1678.22,-379.84 1668.8,-384.69 1673.88,-389.5"/>
</g>
<!-- components/MoreWindow.module.css -->
<g id="node16" class="node">
<title>components/MoreWindow.module.css</title>
<path fill="none" stroke="#c6c5fe" d="M1521.83,-378.5C1521.83,-378.5 1279.17,-378.5 1279.17,-378.5 1275.08,-378.5 1271,-374.42 1271,-370.33 1271,-370.33 1271,-362.17 1271,-362.17 1271,-358.08 1275.08,-354 1279.17,-354 1279.17,-354 1521.83,-354 1521.83,-354 1525.92,-354 1530,-358.08 1530,-362.17 1530,-362.17 1530,-370.33 1530,-370.33 1530,-374.42 1525.92,-378.5 1521.83,-378.5"/>
<text text-anchor="middle" x="1400.5" y="-361.2" font-family="Arial" font-size="14.00" fill="#c6c5fe">components/MoreWindow.module.css</text>
</g>
<!-- components/MoreWindow.jsx&#45;&gt;components/MoreWindow.module.css -->
<g id="edge12" class="edge">
<title>components/MoreWindow.jsx&#45;&gt;components/MoreWindow.module.css</title>
<path fill="none" stroke="#757575" d="M1167.75,-366.25C1196.59,-366.25 1228.58,-366.25 1259.34,-366.25"/>
<polygon fill="#757575" stroke="#757575" points="1259.09,-369.75 1269.09,-366.25 1259.09,-362.75 1259.09,-369.75"/>
</g>
<!-- components/MoreWindow.jsx&#45;&gt;firebase.js -->
<g id="edge13" class="edge">
<title>components/MoreWindow.jsx&#45;&gt;firebase.js</title>
<path fill="none" stroke="#757575" d="M1154.37,-378.97C1170.04,-381.71 1186.18,-384.82 1201.25,-388.25 1252.71,-399.95 1310.52,-417.37 1350.37,-430.06"/>
<polygon fill="#757575" stroke="#757575" points="1349.09,-433.32 1359.68,-433.04 1351.22,-426.66 1349.09,-433.32"/>
</g>
<!-- components/MoreWindow.module.css&#45;&gt;colors.css -->
<g id="edge14" class="edge">
<title>components/MoreWindow.module.css&#45;&gt;colors.css</title>
<path fill="none" stroke="#757575" d="M1530.31,-366.25C1568.86,-366.25 1608.92,-366.25 1639.32,-366.25"/>
<polygon fill="#757575" stroke="#757575" points="1638.96,-369.75 1648.96,-366.25 1638.96,-362.75 1638.96,-369.75"/>
</g>
<!-- components/auth/Auth.module.css -->
<g id="node18" class="node">
<title>components/auth/Auth.module.css</title>
<path fill="none" stroke="#cfffac" d="M1175.08,-894.5C1175.08,-894.5 957.17,-894.5 957.17,-894.5 953.08,-894.5 949,-890.42 949,-886.33 949,-886.33 949,-878.17 949,-878.17 949,-874.08 953.08,-870 957.17,-870 957.17,-870 1175.08,-870 1175.08,-870 1179.17,-870 1183.25,-874.08 1183.25,-878.17 1183.25,-878.17 1183.25,-886.33 1183.25,-886.33 1183.25,-890.42 1179.17,-894.5 1175.08,-894.5"/>
<text text-anchor="middle" x="1066.12" y="-877.2" font-family="Arial" font-size="14.00" fill="#cfffac">components/auth/Auth.module.css</text>
</g>
<!-- components/auth/AuthUser.jsx&#45;&gt;firebase.js -->
<g id="edge16" class="edge">
<title>components/auth/AuthUser.jsx&#45;&gt;firebase.js</title>
<path fill="none" stroke="#757575" d="M1097.62,-514.6C1131.25,-501.15 1187.23,-480.19 1237.25,-468.25 1273.7,-459.55 1315.62,-453.98 1347.73,-450.62"/>
<polygon fill="#757575" stroke="#757575" points="1347.98,-454.11 1357.58,-449.63 1347.28,-447.15 1347.98,-454.11"/>
</g>
<!-- components/navbar/Navbar.module.css -->
<g id="node20" class="node">
<title>components/navbar/Navbar.module.css</title>
<path fill="none" stroke="#cfffac" d="M1525.21,-600.5C1525.21,-600.5 1275.79,-600.5 1275.79,-600.5 1271.71,-600.5 1267.62,-596.42 1267.62,-592.33 1267.62,-592.33 1267.62,-584.17 1267.62,-584.17 1267.62,-580.08 1271.71,-576 1275.79,-576 1275.79,-576 1525.21,-576 1525.21,-576 1529.29,-576 1533.38,-580.08 1533.38,-584.17 1533.38,-584.17 1533.38,-592.33 1533.38,-592.33 1533.38,-596.42 1529.29,-600.5 1525.21,-600.5"/>
<text text-anchor="middle" x="1400.5" y="-583.2" font-family="Arial" font-size="14.00" fill="#cfffac">components/navbar/Navbar.module.css</text>
</g>
<!-- components/auth/AuthUser.jsx&#45;&gt;components/navbar/Navbar.module.css -->
<g id="edge15" class="edge">
<title>components/auth/AuthUser.jsx&#45;&gt;components/navbar/Navbar.module.css</title>
<path fill="none" stroke="#757575" d="M1136.4,-539.96C1189.53,-549.71 1262.97,-563.19 1318.76,-573.43"/>
<polygon fill="#757575" stroke="#757575" points="1318.08,-576.86 1328.54,-575.23 1319.34,-569.98 1318.08,-576.86"/>
</g>
<!-- components/auth/SignIn.jsx&#45;&gt;context/AuthContext.js -->
<g id="edge18" class="edge">
<title>components/auth/SignIn.jsx&#45;&gt;context/AuthContext.js</title>
<path fill="none" stroke="#757575" d="M860.38,-867.5C897.28,-862.41 939.6,-856.57 976.15,-851.53"/>
<polygon fill="#757575" stroke="#757575" points="976.37,-855.03 985.8,-850.2 975.41,-848.1 976.37,-855.03"/>
</g>
<!-- components/auth/SignIn.jsx&#45;&gt;pages/Pages.module.css -->
<g id="edge21" class="edge">
<title>components/auth/SignIn.jsx&#45;&gt;pages/Pages.module.css</title>
<path fill="none" stroke="#757575" d="M862.26,-890.15C873.62,-893.19 884.8,-897.14 895,-902.25 914.68,-912.1 910.55,-928.12 931,-936.25 986.81,-958.44 1156.77,-976.6 1201.25,-936.25 1262.27,-880.89 1190.05,-634.78 1237.25,-567.25 1258.98,-536.16 1296.57,-517.02 1330.1,-505.48"/>
<polygon fill="#757575" stroke="#757575" points="1330.95,-508.88 1339.38,-502.47 1328.79,-502.23 1330.95,-508.88"/>
</g>
<!-- components/auth/SignIn.jsx&#45;&gt;firebase.js -->
<g id="edge19" class="edge">
<title>components/auth/SignIn.jsx&#45;&gt;firebase.js</title>
<path fill="none" stroke="#757575" d="M842.42,-892.99C870.14,-897.14 901.92,-901.21 931,-903.25 990.91,-907.46 1157.07,-943.93 1201.25,-903.25 1272.61,-837.55 1170.48,-538.6 1237.25,-468.25 1264.97,-439.04 1311.7,-435.42 1347.91,-438.02"/>
<polygon fill="#757575" stroke="#757575" points="1347.47,-441.49 1357.75,-438.91 1348.11,-434.52 1347.47,-441.49"/>
</g>
<!-- components/auth/SignIn.jsx&#45;&gt;components/auth/Auth.module.css -->
<g id="edge17" class="edge">
<title>components/auth/SignIn.jsx&#45;&gt;components/auth/Auth.module.css</title>
<path fill="none" stroke="#757575" d="M862.42,-880.89C886.15,-881.05 912,-881.22 937.07,-881.39"/>
<polygon fill="#757575" stroke="#757575" points="936.98,-884.89 947.01,-881.45 937.03,-877.89 936.98,-884.89"/>
</g>
<!-- images/google_icon.png -->
<g id="node22" class="node">
<title>images/google_icon.png</title>
<path fill="none" stroke="#cfffac" d="M1144.33,-1012.5C1144.33,-1012.5 987.92,-1012.5 987.92,-1012.5 983.83,-1012.5 979.75,-1008.42 979.75,-1004.33 979.75,-1004.33 979.75,-996.17 979.75,-996.17 979.75,-992.08 983.83,-988 987.92,-988 987.92,-988 1144.33,-988 1144.33,-988 1148.42,-988 1152.5,-992.08 1152.5,-996.17 1152.5,-996.17 1152.5,-1004.33 1152.5,-1004.33 1152.5,-1008.42 1148.42,-1012.5 1144.33,-1012.5"/>
<text text-anchor="middle" x="1066.12" y="-995.2" font-family="Arial" font-size="14.00" fill="#cfffac">images/google_icon.png</text>
</g>
<!-- components/auth/SignIn.jsx&#45;&gt;images/google_icon.png -->
<g id="edge20" class="edge">
<title>components/auth/SignIn.jsx&#45;&gt;images/google_icon.png</title>
<path fill="none" stroke="#757575" d="M862.32,-886.26C874.05,-889.89 885.3,-895.04 895,-902.25 923.71,-923.6 902.5,-952.62 931,-974.25 942.03,-982.62 955.01,-988.53 968.47,-992.66"/>
<polygon fill="#757575" stroke="#757575" points="967.31,-995.97 977.88,-995.21 969.14,-989.22 967.31,-995.97"/>
</g>
<!-- components/auth/SignUp.jsx&#45;&gt;pages/Pages.module.css -->
<g id="edge24" class="edge">
<title>components/auth/SignUp.jsx&#45;&gt;pages/Pages.module.css</title>
<path fill="none" stroke="#757575" d="M865.16,-808.09C977.57,-814.91 1153.4,-817.95 1201.25,-775.25 1271.25,-712.79 1180.69,-642.11 1237.25,-567.25 1260.54,-536.42 1299.17,-517.18 1332.9,-505.52"/>
<polygon fill="#757575" stroke="#757575" points="1333.8,-508.91 1342.21,-502.47 1331.62,-502.26 1333.8,-508.91"/>
</g>
<!-- components/auth/SignUp.jsx&#45;&gt;firebase.js -->
<g id="edge23" class="edge">
<title>components/auth/SignUp.jsx&#45;&gt;firebase.js</title>
<path fill="none" stroke="#757575" d="M842.46,-787.55C959.76,-766.85 1176.85,-725.54 1201.25,-699.25 1271.94,-623.09 1163.05,-540.99 1237.25,-468.25 1265.82,-440.24 1312.03,-436.38 1347.84,-438.58"/>
<polygon fill="#757575" stroke="#757575" points="1347.31,-442.05 1357.56,-439.37 1347.87,-435.07 1347.31,-442.05"/>
</g>
<!-- components/auth/SignUp.jsx&#45;&gt;components/auth/Auth.module.css -->
<g id="edge22" class="edge">
<title>components/auth/SignUp.jsx&#45;&gt;components/auth/Auth.module.css</title>
<path fill="none" stroke="#757575" d="M797.2,-812.92C829.41,-826.44 883.03,-847.61 931,-860.25 940.99,-862.88 951.49,-865.26 962.03,-867.39"/>
<polygon fill="#757575" stroke="#757575" points="961.04,-870.76 971.52,-869.23 962.37,-863.89 961.04,-870.76"/>
</g>
<!-- components/emptyPage/EmptyPage.module.css -->
<g id="node25" class="node">
<title>components/emptyPage/EmptyPage.module.css</title>
<path fill="none" stroke="#cfffac" d="M1555.58,-178.5C1555.58,-178.5 1245.42,-178.5 1245.42,-178.5 1241.33,-178.5 1237.25,-174.42 1237.25,-170.33 1237.25,-170.33 1237.25,-162.17 1237.25,-162.17 1237.25,-158.08 1241.33,-154 1245.42,-154 1245.42,-154 1555.58,-154 1555.58,-154 1559.67,-154 1563.75,-158.08 1563.75,-162.17 1563.75,-162.17 1563.75,-170.33 1563.75,-170.33 1563.75,-174.42 1559.67,-178.5 1555.58,-178.5"/>
<text text-anchor="middle" x="1400.5" y="-161.2" font-family="Arial" font-size="14.00" fill="#cfffac">components/emptyPage/EmptyPage.module.css</text>
</g>
<!-- components/emptyPage/EmptyPage.jsx&#45;&gt;components/emptyPage/EmptyPage.module.css -->
<g id="edge25" class="edge">
<title>components/emptyPage/EmptyPage.jsx&#45;&gt;components/emptyPage/EmptyPage.module.css</title>
<path fill="none" stroke="#757575" d="M1201.36,-167.44C1209.32,-167.39 1217.38,-167.35 1225.46,-167.3"/>
<polygon fill="#757575" stroke="#757575" points="1225.41,-170.8 1235.39,-167.24 1225.37,-163.8 1225.41,-170.8"/>
</g>
<!-- components/map/Map.css -->
<g id="node26" class="node">
<title>components/map/Map.css</title>
<path fill="none" stroke="#cfffac" d="M1774.83,-42.5C1774.83,-42.5 1607.92,-42.5 1607.92,-42.5 1603.83,-42.5 1599.75,-38.42 1599.75,-34.33 1599.75,-34.33 1599.75,-26.17 1599.75,-26.17 1599.75,-22.08 1603.83,-18 1607.92,-18 1607.92,-18 1774.83,-18 1774.83,-18 1778.92,-18 1783,-22.08 1783,-26.17 1783,-26.17 1783,-34.33 1783,-34.33 1783,-38.42 1778.92,-42.5 1774.83,-42.5"/>
<text text-anchor="middle" x="1691.38" y="-25.2" font-family="Arial" font-size="14.00" fill="#cfffac">components/map/Map.css</text>
</g>
<!-- components/map/Map.jsx&#45;&gt;pages/Pages.module.css -->
<g id="edge29" class="edge">
<title>components/map/Map.jsx&#45;&gt;pages/Pages.module.css</title>
<path fill="none" stroke="#757575" d="M1122.64,-62.89C1150.78,-72.26 1182.83,-88.09 1201.25,-114.25 1246.65,-178.72 1182.43,-410.58 1237.25,-467.25 1253.72,-484.27 1276.65,-492.54 1300.09,-495.96"/>
<polygon fill="#757575" stroke="#757575" points="1299.41,-499.4 1309.74,-497.06 1300.2,-492.45 1299.41,-499.4"/>
</g>
<!-- components/map/Map.jsx&#45;&gt;firebase.js -->
<g id="edge28" class="edge">
<title>components/map/Map.jsx&#45;&gt;firebase.js</title>
<path fill="none" stroke="#757575" d="M1155.33,-51.29C1172.64,-55.57 1189.16,-63.2 1201.25,-76.25 1295.82,-178.32 1150.99,-278.07 1237.25,-387.25 1263.86,-420.93 1311.46,-435.39 1348.25,-441.59"/>
<polygon fill="#757575" stroke="#757575" points="1347.37,-445 1357.78,-443.04 1348.42,-438.08 1347.37,-445"/>
</g>
<!-- components/map/Map.jsx&#45;&gt;components/map/Map.css -->
<g id="edge26" class="edge">
<title>components/map/Map.jsx&#45;&gt;components/map/Map.css</title>
<path fill="none" stroke="#757575" d="M1155.43,-47.42C1269.45,-43.76 1467.51,-37.4 1588,-33.54"/>
<polygon fill="#757575" stroke="#757575" points="1588.01,-37.04 1597.9,-33.22 1587.79,-30.04 1588.01,-37.04"/>
</g>
<!-- components/map/Search.jsx -->
<g id="node28" class="node">
<title>components/map/Search.jsx</title>
<path fill="none" stroke="#c6c5fe" d="M1490.33,-82.5C1490.33,-82.5 1310.67,-82.5 1310.67,-82.5 1306.58,-82.5 1302.5,-78.42 1302.5,-74.33 1302.5,-74.33 1302.5,-66.17 1302.5,-66.17 1302.5,-62.08 1306.58,-58 1310.67,-58 1310.67,-58 1490.33,-58 1490.33,-58 1494.42,-58 1498.5,-62.08 1498.5,-66.17 1498.5,-66.17 1498.5,-74.33 1498.5,-74.33 1498.5,-78.42 1494.42,-82.5 1490.33,-82.5"/>
<text text-anchor="middle" x="1400.5" y="-65.2" font-family="Arial" font-size="14.00" fill="#c6c5fe">components/map/Search.jsx</text>
</g>
<!-- components/map/Map.jsx&#45;&gt;components/map/Search.jsx -->
<g id="edge27" class="edge">
<title>components/map/Map.jsx&#45;&gt;components/map/Search.jsx</title>
<path fill="none" stroke="#757575" d="M1155.32,-55.56C1196.9,-58.06 1246.9,-61.07 1290.79,-63.71"/>
<polygon fill="#757575" stroke="#757575" points="1290.41,-67.19 1300.6,-64.3 1290.83,-60.2 1290.41,-67.19"/>
</g>
<!-- components/map/Search.jsx&#45;&gt;components/map/Map.css -->
<g id="edge30" class="edge">
<title>components/map/Search.jsx&#45;&gt;components/map/Map.css</title>
<path fill="none" stroke="#757575" d="M1493.3,-57.54C1523.46,-53.36 1557.17,-48.69 1588.07,-44.42"/>
<polygon fill="#757575" stroke="#757575" points="1588.39,-47.91 1597.81,-43.07 1587.43,-40.97 1588.39,-47.91"/>
</g>
<!-- images/location&#45;pin2.png -->
<g id="node29" class="node">
<title>images/location&#45;pin2.png</title>
<path fill="none" stroke="#cfffac" d="M1770.33,-85.5C1770.33,-85.5 1612.42,-85.5 1612.42,-85.5 1608.33,-85.5 1604.25,-81.42 1604.25,-77.33 1604.25,-77.33 1604.25,-69.17 1604.25,-69.17 1604.25,-65.08 1608.33,-61 1612.42,-61 1612.42,-61 1770.33,-61 1770.33,-61 1774.42,-61 1778.5,-65.08 1778.5,-69.17 1778.5,-69.17 1778.5,-77.33 1778.5,-77.33 1778.5,-81.42 1774.42,-85.5 1770.33,-85.5"/>
<text text-anchor="middle" x="1691.38" y="-68.2" font-family="Arial" font-size="14.00" fill="#cfffac">images/location&#45;pin2.png</text>
</g>
<!-- components/map/Search.jsx&#45;&gt;images/location&#45;pin2.png -->
<g id="edge31" class="edge">
<title>components/map/Search.jsx&#45;&gt;images/location&#45;pin2.png</title>
<path fill="none" stroke="#757575" d="M1498.9,-71.26C1529.11,-71.58 1562.4,-71.92 1592.63,-72.23"/>
<polygon fill="#757575" stroke="#757575" points="1592.51,-75.73 1602.54,-72.34 1592.58,-68.73 1592.51,-75.73"/>
</g>
<!-- components/navbar/Navbar.jsx&#45;&gt;components/navbar/Navbar.module.css -->
<g id="edge32" class="edge">
<title>components/navbar/Navbar.jsx&#45;&gt;components/navbar/Navbar.module.css</title>
<path fill="none" stroke="#757575" d="M1141.3,-632.53C1192.48,-623.75 1260.65,-612.06 1314.09,-602.9"/>
<polygon fill="#757575" stroke="#757575" points="1314.51,-606.38 1323.77,-601.24 1313.32,-599.48 1314.51,-606.38"/>
</g>
<!-- components/spinner/Spinner.module.css -->
<g id="node32" class="node">
<title>components/spinner/Spinner.module.css</title>
<path fill="none" stroke="#cfffac" d="M1529.71,-307.5C1529.71,-307.5 1271.29,-307.5 1271.29,-307.5 1267.21,-307.5 1263.12,-303.42 1263.12,-299.33 1263.12,-299.33 1263.12,-291.17 1263.12,-291.17 1263.12,-287.08 1267.21,-283 1271.29,-283 1271.29,-283 1529.71,-283 1529.71,-283 1533.79,-283 1537.88,-287.08 1537.88,-291.17 1537.88,-291.17 1537.88,-299.33 1537.88,-299.33 1537.88,-303.42 1533.79,-307.5 1529.71,-307.5"/>
<text text-anchor="middle" x="1400.5" y="-290.2" font-family="Arial" font-size="14.00" fill="#cfffac">components/spinner/Spinner.module.css</text>
</g>
<!-- components/spinner/Spinner.jsx&#45;&gt;components/spinner/Spinner.module.css -->
<g id="edge33" class="edge">
<title>components/spinner/Spinner.jsx&#45;&gt;components/spinner/Spinner.module.css</title>
<path fill="none" stroke="#757575" d="M1152.34,-260.96C1179.47,-264.96 1209.61,-269.35 1237.25,-273.25 1255.28,-275.8 1274.45,-278.45 1293.06,-280.99"/>
<polygon fill="#757575" stroke="#757575" points="1292.36,-284.43 1302.74,-282.31 1293.31,-277.49 1292.36,-284.43"/>
</g>
<!-- images/plane.png -->
<g id="node33" class="node">
<title>images/plane.png</title>
<path fill="none" stroke="#cfffac" d="M1456.58,-264.5C1456.58,-264.5 1344.42,-264.5 1344.42,-264.5 1340.33,-264.5 1336.25,-260.42 1336.25,-256.33 1336.25,-256.33 1336.25,-248.17 1336.25,-248.17 1336.25,-244.08 1340.33,-240 1344.42,-240 1344.42,-240 1456.58,-240 1456.58,-240 1460.67,-240 1464.75,-244.08 1464.75,-248.17 1464.75,-248.17 1464.75,-256.33 1464.75,-256.33 1464.75,-260.42 1460.67,-264.5 1456.58,-264.5"/>
<text text-anchor="middle" x="1400.5" y="-247.2" font-family="Arial" font-size="14.00" fill="#cfffac">images/plane.png</text>
</g>
<!-- components/spinner/Spinner.jsx&#45;&gt;images/plane.png -->
<g id="edge34" class="edge">
<title>components/spinner/Spinner.jsx&#45;&gt;images/plane.png</title>
<path fill="none" stroke="#757575" d="M1175.5,-249.55C1224.19,-250.14 1280.45,-250.82 1324.4,-251.35"/>
<polygon fill="#757575" stroke="#757575" points="1324.32,-254.85 1334.36,-251.47 1324.4,-247.85 1324.32,-254.85"/>
</g>
<!-- components/travelLists/TravelLists.jsx&#45;&gt;context/AuthContext.js -->
<g id="edge42" class="edge">
<title>components/travelLists/TravelLists.jsx&#45;&gt;context/AuthContext.js</title>
<path fill="none" stroke="#757575" d="M816.85,-338.97C844.24,-348.71 876.52,-365.03 895,-391.25 966.01,-492 883.59,-552.47 931,-666.25 957.19,-729.1 1012.41,-788.71 1043.2,-818.83"/>
<polygon fill="#757575" stroke="#757575" points="1040.47,-821.06 1050.11,-825.48 1045.33,-816.02 1040.47,-821.06"/>
</g>
<!-- components/travelLists/TravelLists.jsx&#45;&gt;components/AddNote.jsx -->
<g id="edge35" class="edge">
<title>components/travelLists/TravelLists.jsx&#45;&gt;components/AddNote.jsx</title>
<path fill="none" stroke="#757575" d="M796.59,-338.9C828.71,-352.65 882.68,-374.38 931,-387.25 942.52,-390.32 954.72,-393.03 966.88,-395.41"/>
<polygon fill="#757575" stroke="#757575" points="966.06,-398.82 976.53,-397.23 967.35,-391.94 966.06,-398.82"/>
</g>
<!-- components/travelLists/TravelLists.jsx&#45;&gt;components/travelLists/TravelLists.module.css -->
<g id="edge41" class="edge">
<title>components/travelLists/TravelLists.jsx&#45;&gt;components/travelLists/TravelLists.module.css</title>
<path fill="none" stroke="#757575" d="M782.9,-313.51C810.15,-291.12 870.76,-245.37 931,-227.25 1033.81,-196.34 1155.03,-192.5 1248.41,-196.04"/>
<polygon fill="#757575" stroke="#757575" points="1248.01,-199.53 1258.15,-196.45 1248.3,-192.53 1248.01,-199.53"/>
</g>
<!-- components/travelLists/TravelLists.jsx&#45;&gt;pages/Pages.module.css -->
<g id="edge44" class="edge">
<title>components/travelLists/TravelLists.jsx&#45;&gt;pages/Pages.module.css</title>
<path fill="none" stroke="#757575" d="M895.37,-316.02C1005.92,-309.92 1155.26,-309.27 1201.25,-345.25 1245.78,-380.08 1194.35,-430.43 1237.25,-467.25 1254.67,-482.21 1277.26,-489.91 1300.01,-493.46"/>
<polygon fill="#757575" stroke="#757575" points="1299.31,-496.9 1309.67,-494.69 1300.19,-489.95 1299.31,-496.9"/>
</g>
<!-- components/travelLists/TravelLists.jsx&#45;&gt;components/MoreWindow.jsx -->
<g id="edge36" class="edge">
<title>components/travelLists/TravelLists.jsx&#45;&gt;components/MoreWindow.jsx</title>
<path fill="none" stroke="#757575" d="M862.42,-338.96C893.28,-343.12 927.74,-347.76 959.38,-352.01"/>
<polygon fill="#757575" stroke="#757575" points="958.56,-355.44 968.94,-353.3 959.5,-348.5 958.56,-355.44"/>
</g>
<!-- components/travelLists/TravelLists.jsx&#45;&gt;firebase.js -->
<g id="edge43" class="edge">
<title>components/travelLists/TravelLists.jsx&#45;&gt;firebase.js</title>
<path fill="none" stroke="#757575" d="M801.38,-313.53C878.67,-286.4 1073.06,-231.59 1201.25,-312.25 1232.54,-331.94 1209.85,-362.43 1237.25,-387.25 1268.12,-415.21 1313.28,-430.2 1348.13,-438.06"/>
<polygon fill="#757575" stroke="#757575" points="1347.06,-441.41 1357.56,-440.06 1348.51,-434.57 1347.06,-441.41"/>
</g>
<!-- components/travelLists/TravelLists.jsx&#45;&gt;components/auth/AuthUser.jsx -->
<g id="edge37" class="edge">
<title>components/travelLists/TravelLists.jsx&#45;&gt;components/auth/AuthUser.jsx</title>
<path fill="none" stroke="#757575" d="M800.07,-338.9C826.89,-350.33 865.41,-368.79 895,-391.25 913.79,-405.51 913.36,-414.59 931,-430.25 964.69,-460.15 1007.41,-489.8 1035.47,-508.3"/>
<polygon fill="#757575" stroke="#757575" points="1033.55,-511.22 1043.83,-513.76 1037.37,-505.36 1033.55,-511.22"/>
</g>
<!-- components/travelLists/TravelLists.jsx&#45;&gt;components/emptyPage/EmptyPage.jsx -->
<g id="edge38" class="edge">
<title>components/travelLists/TravelLists.jsx&#45;&gt;components/emptyPage/EmptyPage.jsx</title>
<path fill="none" stroke="#757575" d="M783.45,-313.58C823.29,-280.91 926.74,-196.24 931,-194.25 939.5,-190.29 948.57,-186.93 957.84,-184.09"/>
<polygon fill="#757575" stroke="#757575" points="958.66,-187.49 967.33,-181.39 956.75,-180.76 958.66,-187.49"/>
</g>
<!-- components/travelLists/TravelLists.jsx&#45;&gt;components/navbar/Navbar.jsx -->
<g id="edge39" class="edge">
<title>components/travelLists/TravelLists.jsx&#45;&gt;components/navbar/Navbar.jsx</title>
<path fill="none" stroke="#757575" d="M814.08,-338.96C841.52,-348.85 874.84,-365.36 895,-391.25 938.98,-447.74 891.47,-488.57 931,-548.25 954.74,-584.09 996.53,-611.16 1027.17,-627.48"/>
<polygon fill="#757575" stroke="#757575" points="1025.26,-630.43 1035.75,-631.9 1028.47,-624.21 1025.26,-630.43"/>
</g>
<!-- components/travelLists/TravelLists.jsx&#45;&gt;components/spinner/Spinner.jsx -->
<g id="edge40" class="edge">
<title>components/travelLists/TravelLists.jsx&#45;&gt;components/spinner/Spinner.jsx</title>
<path fill="none" stroke="#757575" d="M803.58,-313.57C836.37,-302.2 886.54,-285.61 931,-274.25 946.78,-270.22 963.74,-266.48 980.12,-263.17"/>
<polygon fill="#757575" stroke="#757575" points="980.72,-266.61 989.85,-261.24 979.36,-259.75 980.72,-266.61"/>
</g>
<!-- hooks/useGeolocation.js -->
<g id="node36" class="node">
<title>hooks/useGeolocation.js</title>
<path fill="none" stroke="#cfffac" d="M163.83,-842.5C163.83,-842.5 8.17,-842.5 8.17,-842.5 4.08,-842.5 0,-838.42 0,-834.33 0,-834.33 0,-826.17 0,-826.17 0,-822.08 4.08,-818 8.17,-818 8.17,-818 163.83,-818 163.83,-818 167.92,-818 172,-822.08 172,-826.17 172,-826.17 172,-834.33 172,-834.33 172,-838.42 167.92,-842.5 163.83,-842.5"/>
<text text-anchor="middle" x="86" y="-825.2" font-family="Arial" font-size="14.00" fill="#cfffac">hooks/useGeolocation.js</text>
</g>
<!-- index.css -->
<g id="node37" class="node">
<title>index.css</title>
<path fill="none" stroke="#cfffac" d="M304.33,-778.5C304.33,-778.5 244.67,-778.5 244.67,-778.5 240.58,-778.5 236.5,-774.42 236.5,-770.33 236.5,-770.33 236.5,-762.17 236.5,-762.17 236.5,-758.08 240.58,-754 244.67,-754 244.67,-754 304.33,-754 304.33,-754 308.42,-754 312.5,-758.08 312.5,-762.17 312.5,-762.17 312.5,-770.33 312.5,-770.33 312.5,-774.42 308.42,-778.5 304.33,-778.5"/>
<text text-anchor="middle" x="274.5" y="-761.2" font-family="Arial" font-size="14.00" fill="#cfffac">index.css</text>
</g>
<!-- index.js -->
<g id="node38" class="node">
<title>index.js</title>
<path fill="none" stroke="#c6c5fe" d="M109.83,-799.5C109.83,-799.5 62.17,-799.5 62.17,-799.5 58.08,-799.5 54,-795.42 54,-791.33 54,-791.33 54,-783.17 54,-783.17 54,-779.08 58.08,-775 62.17,-775 62.17,-775 109.83,-775 109.83,-775 113.92,-775 118,-779.08 118,-783.17 118,-783.17 118,-791.33 118,-791.33 118,-795.42 113.92,-799.5 109.83,-799.5"/>
<text text-anchor="middle" x="86" y="-782.2" font-family="Arial" font-size="14.00" fill="#c6c5fe">index.js</text>
</g>
<!-- index.js&#45;&gt;App.js -->
<g id="edge47" class="edge">
<title>index.js&#45;&gt;App.js</title>
<path fill="none" stroke="#757575" d="M97.83,-774.65C128.61,-738.84 216.8,-636.22 255.23,-591.51"/>
<polygon fill="#757575" stroke="#757575" points="257.79,-593.9 261.65,-584.04 252.48,-589.34 257.79,-593.9"/>
</g>
<!-- index.js&#45;&gt;context/AuthContext.js -->
<g id="edge48" class="edge">
<title>index.js&#45;&gt;context/AuthContext.js</title>
<path fill="none" stroke="#757575" d="M118.35,-793.2C134.69,-796.84 154.8,-802.17 172,-809.25 189.13,-816.3 191.13,-822.59 208,-830.25 392.02,-913.82 439.55,-942.6 639,-975.25 751.28,-993.63 803.23,-1042.51 895,-975.25 937.86,-943.84 890.84,-896.03 931,-861.25 943.73,-850.23 959.79,-843.64 976.32,-839.87"/>
<polygon fill="#757575" stroke="#757575" points="976.58,-843.38 985.75,-838.07 975.27,-836.51 976.58,-843.38"/>
</g>
<!-- index.js&#45;&gt;index.css -->
<g id="edge49" class="edge">
<title>index.js&#45;&gt;index.css</title>
<path fill="none" stroke="#757575" d="M118.22,-783.74C147.38,-780.45 191.35,-775.5 225.06,-771.7"/>
<polygon fill="#757575" stroke="#757575" points="225.02,-775.23 234.57,-770.63 224.24,-768.28 225.02,-775.23"/>
</g>
<!-- reportWebVitals.js -->
<g id="node39" class="node">
<title>reportWebVitals.js</title>
<path fill="none" stroke="#cfffac" d="M332.83,-821.5C332.83,-821.5 216.17,-821.5 216.17,-821.5 212.08,-821.5 208,-817.42 208,-813.33 208,-813.33 208,-805.17 208,-805.17 208,-801.08 212.08,-797 216.17,-797 216.17,-797 332.83,-797 332.83,-797 336.92,-797 341,-801.08 341,-805.17 341,-805.17 341,-813.33 341,-813.33 341,-817.42 336.92,-821.5 332.83,-821.5"/>
<text text-anchor="middle" x="274.5" y="-804.2" font-family="Arial" font-size="14.00" fill="#cfffac">reportWebVitals.js</text>
</g>
<!-- index.js&#45;&gt;reportWebVitals.js -->
<g id="edge50" class="edge">
<title>index.js&#45;&gt;reportWebVitals.js</title>
<path fill="none" stroke="#757575" d="M118.22,-790.93C139.63,-793.46 169.04,-796.93 196.51,-800.17"/>
<polygon fill="#757575" stroke="#757575" points="195.88,-803.62 206.22,-801.31 196.7,-796.67 195.88,-803.62"/>
</g>
<!-- setupTests.js -->
<g id="node41" class="node">
<title>setupTests.js</title>
<path fill="none" stroke="#cfffac" d="M128.58,-885.5C128.58,-885.5 43.42,-885.5 43.42,-885.5 39.33,-885.5 35.25,-881.42 35.25,-877.33 35.25,-877.33 35.25,-869.17 35.25,-869.17 35.25,-865.08 39.33,-861 43.42,-861 43.42,-861 128.58,-861 128.58,-861 132.67,-861 136.75,-865.08 136.75,-869.17 136.75,-869.17 136.75,-877.33 136.75,-877.33 136.75,-881.42 132.67,-885.5 128.58,-885.5"/>
<text text-anchor="middle" x="86" y="-868.2" font-family="Arial" font-size="14.00" fill="#cfffac">setupTests.js</text>
</g>
</g>
</svg>
